<?xml version="1.0" encoding="UTF-8" standalone="no"?>
<svg
   xmlns:dc="http://purl.org/dc/elements/1.1/"
   xmlns:cc="http://creativecommons.org/ns#"
   xmlns:rdf="http://www.w3.org/1999/02/22-rdf-syntax-ns#"
   xmlns:svg="http://www.w3.org/2000/svg"
   xmlns="http://www.w3.org/2000/svg"
   xmlns:sodipodi="http://sodipodi.sourceforge.net/DTD/sodipodi-0.dtd"
   xmlns:inkscape="http://www.inkscape.org/namespaces/inkscape"
   aria-hidden="true"
   focusable="false"
   data-prefix="fas"
   data-icon="bell"
   class="svg-inline--fa fa-bell fa-w-14"
   role="img"
   viewBox="0 0 448 512"
   version="1.1"
   id="svg977"
   sodipodi:docname="notipy.svg"
   inkscape:version="1.0.1 (3bc2e813f5, 2020-09-07)">
  <metadata
     id="metadata983">
    <rdf:RDF>
      <cc:Work
         rdf:about="">
        <dc:format>image/svg+xml</dc:format>
        <dc:type
           rdf:resource="http://purl.org/dc/dcmitype/StillImage" />
        <dc:title></dc:title>
      </cc:Work>
    </rdf:RDF>
  </metadata>
  <defs
     id="defs981" />
  <sodipodi:namedview
     pagecolor="#ffffff"
     bordercolor="#666666"
     borderopacity="1"
     objecttolerance="10"
     gridtolerance="10"
     guidetolerance="10"
     inkscape:pageopacity="0"
     inkscape:pageshadow="2"
     inkscape:window-width="1895"
     inkscape:window-height="1055"
     id="namedview979"
     showgrid="false"
     showguides="true"
     inkscape:guide-bbox="true"
     inkscape:zoom="1.6386719"
     inkscape:cx="189.82598"
     inkscape:cy="256"
     inkscape:window-x="25"
     inkscape:window-y="25"
     inkscape:window-maximized="1"
     inkscape:current-layer="svg977">
    <sodipodi:guide
       position="223.96186,402.15495"
       orientation="1,0"
       id="guide2170" />
  </sodipodi:namedview>
  <path
     fill="currentColor"
     d="M224 512c35.32 0 63.97-28.65 63.97-64H160.03c0 35.35 28.65 64 63.97 64zm215.39-149.71c-19.32-20.76-55.47-51.99-55.47-154.29 0-77.7-54.48-139.9-127.94-155.16V32c0-17.67-14.32-32-31.98-32s-31.98 14.33-31.98 32v20.84C118.56 68.1 64.08 130.3 64.08 208c0 102.3-36.15 133.53-55.47 154.29-6 6.45-8.66 14.16-8.61 21.71.11 16.4 12.98 32 32.1 32h383.8c19.12 0 32-15.6 32.1-32 .05-7.55-2.61-15.27-8.61-21.71z"
     id="path975"
     inkscape:export-xdpi="96"
     inkscape:export-ydpi="96"
     style="fill:#000000;fill-opacity:1;stroke:#ffffff;stroke-opacity:1" />
  <path
     fill="currentColor"
     d="m 332.26797,214.38534 c -3.81674,-15.31651 -11.05367,-26.86586 -26.46932,-26.86586 h -19.87677 v 23.49524 c 0,18.24103 -15.46522,33.60711 -33.11144,33.60711 H 199.8718 c -14.47386,0 -26.46932,12.392 -26.46932,26.91543 v 50.46024 c 0,14.37472 12.49114,22.80128 26.46932,26.91543 16.75399,4.90723 32.8636,5.79946 52.93864,0 13.3338,-3.86631 26.46932,-11.64848 26.46932,-26.91543 v -20.17418 h -52.88907 v -6.74125 h 79.40796 c 15.41565,0 21.11597,-10.75626 26.46932,-26.86587 5.55162,-16.60528 5.30378,-32.56618 0,-53.83086 z M 256.1315,315.25625 c 5.50205,0 9.96317,4.51069 9.96317,10.0623 0,5.60119 -4.46112,10.11188 -9.96317,10.11188 -5.45248,0 -9.96317,-4.56026 -9.96317,-10.11188 0.0496,-5.60118 4.51069,-10.0623 9.96317,-10.0623 z m -58.68853,-77.27653 h 52.93864 c 14.7217,0 26.46932,-12.14417 26.46932,-26.91543 v -50.50981 c 0,-14.37472 -12.09459,-25.13098 -26.46932,-27.55981 -17.74535,-2.92451 -37.02731,-2.77581 -52.93864,0.0496 -22.40474,3.96544 -26.46932,12.2433 -26.46932,27.55981 v 20.17418 h 52.98821 v 6.74125 h -72.86498 c -15.41565,0 -28.89815,9.26922 -33.11143,26.86586 -4.85767,20.17418 -5.05594,32.76446 0,53.83086 3.76717,15.66347 12.73898,26.86584 28.15463,26.86584 h 18.19146 v -24.18919 c 0,-17.49751 15.11824,-32.91316 33.11143,-32.91316 z m -3.32106,-70.68399 c -5.50205,0 -9.96317,-4.51069 -9.96317,-10.0623 0.0496,-5.60119 4.46112,-10.11188 9.96317,-10.11188 5.45248,0 9.96317,4.56026 9.96317,10.11188 0,5.55161 -4.46112,10.0623 -9.96317,10.0623 z"
     id="path1584"
     style="fill:#ffffff;fill-opacity:1;stroke-width:0.49568"
     inkscape:export-xdpi="96"
     inkscape:export-ydpi="96" />
</svg>
