<?xml version="1.0" encoding="UTF-8" standalone="no"?>
<svg
   xmlns:dc="http://purl.org/dc/elements/1.1/"
   xmlns:cc="http://creativecommons.org/ns#"
   xmlns:rdf="http://www.w3.org/1999/02/22-rdf-syntax-ns#"
   xmlns:svg="http://www.w3.org/2000/svg"
   xmlns="http://www.w3.org/2000/svg"
   xmlns:sodipodi="http://sodipodi.sourceforge.net/DTD/sodipodi-0.dtd"
   xmlns:inkscape="http://www.inkscape.org/namespaces/inkscape"
   aria-hidden="true"
   focusable="false"
   data-prefix="fas"
   data-icon="bell"
   class="svg-inline--fa fa-bell fa-w-14"
   role="img"
   viewBox="0 0 448 512"
   version="1.1"
   id="svg977"
   sodipodi:docname="notipy.svg"
   inkscape:version="1.0.1 (3bc2e813f5, 2020-09-07)">
  <metadata
     id="metadata983">
    <rdf:RDF>
      <cc:Work
         rdf:about="">
        <dc:format>image/svg+xml</dc:format>
        <dc:type
           rdf:resource="http://purl.org/dc/dcmitype/StillImage" />
        <dc:title />
      </cc:Work>
    </rdf:RDF>
  </metadata>
  <defs
     id="defs981" />
  <sodipodi:namedview
     pagecolor="#ffffff"
     bordercolor="#666666"
     borderopacity="1"
     objecttolerance="10"
     gridtolerance="10"
     guidetolerance="10"
     inkscape:pageopacity="0"
     inkscape:pageshadow="2"
     inkscape:window-width="1895"
     inkscape:window-height="1055"
     id="namedview979"
     showgrid="false"
     showguides="true"
     inkscape:guide-bbox="true"
     inkscape:zoom="1.4159243"
     inkscape:cx="132.33797"
     inkscape:cy="286.00898"
     inkscape:window-x="25"
     inkscape:window-y="25"
     inkscape:window-maximized="1"
     inkscape:current-layer="svg977"
     inkscape:document-rotation="0">
    <sodipodi:guide
       position="223.96186,402.15495"
       orientation="1,0"
       id="guide2170" />
    <sodipodi:guide
       position="191.61859,275.83314"
       orientation="0,-1"
       id="guide883" />
    <sodipodi:guide
       position="195.28009,355.77593"
       orientation="0,-1"
       id="guide893" />
    <sodipodi:guide
       position="133.64481,188.56735"
       orientation="0,-1"
       id="guide895" />
    <sodipodi:guide
       position="224.57211,425.34446"
       orientation="1,0"
       id="guide902" />
  </sodipodi:namedview>
  <path
     fill="currentColor"
     d="M224 512c35.32 0 63.97-28.65 63.97-64H160.03c0 35.35 28.65 64 63.97 64zm215.39-149.71c-19.32-20.76-55.47-51.99-55.47-154.29 0-77.7-54.48-139.9-127.94-155.16V32c0-17.67-14.32-32-31.98-32s-31.98 14.33-31.98 32v20.84C118.56 68.1 64.08 130.3 64.08 208c0 102.3-36.15 133.53-55.47 154.29-6 6.45-8.66 14.16-8.61 21.71.11 16.4 12.98 32 32.1 32h383.8c19.12 0 32-15.6 32.1-32 .05-7.55-2.61-15.27-8.61-21.71z"
     id="path975"
     inkscape:export-xdpi="96"
     inkscape:export-ydpi="96"
     style="fill:#000000;fill-opacity:1;stroke:#ffffff;stroke-opacity:1" />
  <text
     xml:space="preserve"
     style="font-style:normal;font-weight:normal;font-size:40px;line-height:1.25;font-family:sans-serif;fill:#ffffff;fill-opacity:1;stroke:none"
     x="99.540115"
     y="317.41605"
     id="text887"
     inkscape:export-xdpi="96"
     inkscape:export-ydpi="96"><tspan
       sodipodi:role="line"
       id="tspan885"
       x="99.540115"
       y="317.41605" /></text>
  <path
     fill="currentColor"
     d="m 256.33928,223.26646 c -2.61612,-11.43127 -7.57655,-20.05098 -18.14296,-20.05098 h -13.62421 v 17.53537 c 0,13.61395 -10.60038,25.08222 -22.6957,25.08222 h -36.28592 c -9.92088,0 -18.14297,9.24861 -18.14297,20.08798 v 37.66035 c 0,10.72838 8.56185,17.01743 18.14297,20.08798 11.48375,3.66244 22.52582,4.32835 36.28592,0 9.13944,-2.88557 18.14297,-8.6937 18.14297,-20.08798 v -15.05674 h -36.25195 v -5.03124 h 54.42889 c 10.56641,0 14.4736,-8.0278 18.14296,-20.051 3.80527,-12.39313 3.63539,-24.30534 0,-40.17596 z m -52.1865,75.28369 c 3.77129,0 6.82909,3.3665 6.82909,7.50987 0,4.18037 -3.0578,7.54687 -6.82909,7.54687 -3.73731,0 -6.82909,-3.40349 -6.82909,-7.54687 0.034,-4.18037 3.09178,-7.50987 6.82909,-7.50987 z m -40.2271,-57.67433 h 36.28593 c 10.09075,0 18.14297,-9.06364 18.14297,-20.08798 v -37.69733 c 0,-10.72839 -8.29004,-18.75618 -18.14297,-20.56891 -12.16326,-2.18267 -25.37976,-2.07169 -36.28593,0.037 -15.35696,2.95955 -18.14296,9.13763 -18.14296,20.5689 v 15.05674 h 36.31991 v 5.03124 h -49.94412 c -10.5664,0 -19.80777,6.91796 -22.69569,20.05099 -3.32961,15.05673 -3.46551,24.45332 0,40.17596 2.58215,11.69022 8.73173,20.05097 19.29813,20.05097 h 12.46904 v -18.05329 c 0,-13.05904 10.36255,-24.56431 22.69569,-24.56431 z m -2.27636,-52.75407 c -3.77129,0 -6.8291,-3.3665 -6.8291,-7.50987 0.034,-4.18037 3.05781,-7.54687 6.8291,-7.54687 3.73731,0 6.82909,3.40349 6.82909,7.54687 0,4.14337 -3.0578,7.50987 -6.82909,7.50987 z"
     id="path1584"
     style="fill:#ffffff;fill-opacity:1;stroke-width:0.354529"
     inkscape:export-xdpi="96"
     inkscape:export-ydpi="96" />
  <text
     xml:space="preserve"
     style="font-style:normal;font-weight:normal;font-size:191.599px;line-height:1.25;font-family:sans-serif;fill:#ffffff;fill-opacity:1;stroke:none;stroke-width:4.78998"
     x="402.41818"
     y="210.06061"
     id="text891"
     transform="scale(0.61506497,1.6258445)"
     inkscape:export-xdpi="96"
     inkscape:export-ydpi="96"><tspan
       sodipodi:role="line"
       id="tspan889"
       x="402.41818"
       y="210.06061"
       style="stroke-width:4.78998">&gt;</tspan></text>
</svg>
